#!OML:ASF E:\emotionWalksFemale\Project 1\Capture day 1\Session 1\Female1.ASF
:FULLY-SPECIFIED
:DEGREES
334
root 7.6406 15.0598 41.7808 -178.78 -1.34338 -180.86
lowerback 3.34263 1.95391 -1.44614
upperback -0.469176 2.53301 -0.328832
thorax -2.40225 1.27865 0.335422
lowerneck 0.350443 -3.65509 -8.64973
upperneck -4.67144 -4.80652 9.96715
head -0.969186 -2.49262 4.42899
rclavicle -3.87164e-015 3.08116e-015
rhumerus -37.1567 14.2255 -93.8505
rradius 33.142
rwrist 16.235
rhand -6.54419 -52.8087
rfingers 7.12502
rthumb 19.3092 -81.8701
lclavicle -3.87164e-015 3.08116e-015
lhumerus -38.4246 -14.6201 95.7062
lradius 38.9007
lwrist -11.9721
lhand 1.05295 -37.0322
lfingers 7.12502
lthumb 26.5985 -8.88024
rfemur -10.1402 10.2925 19.1127
rtibia 34.8911
rfoot -24.848 -26.5307
rtoes 0.140297
lfemur -7.77188 -18.8146 -30.0316
ltibia 27.8388
lfoot -26.8165 14.0891
ltoes -10.0367
335
root 7.62544 15.0549 41.7816 -178.796 -1.14422 -180.8
lowerback 3.49201 1.99091 -1.20063
upperback -0.440116 2.58979 -0.35479
thorax -2.445 1.30344 0.163703
lowerneck 0.285942 -3.62387 -8.6987
upperneck -4.6576 -4.7614 9.91022
head -0.959296 -2.46607 4.4183
rclavicle 2.56727e-014 -5.71506e-015
rhumerus -36.8682 14.2627 -93.9541
rradius 32.9305
rwrist 16.2942
rhand -6.58383 -52.9777
rfingers 7.12502
rthumb 19.271 -82.0428
lclavicle 2.56727e-014 -5.71506e-015
lhumerus -38.3279 -14.5111 95.6414
lradius 38.8064
lwrist -11.9315
lhand 0.765718 -37.0907
lfingers 7.12502
lthumb 26.3236 -8.89743
rfemur -10.3818 10.2606 19.0575
rtibia 35.2054
rfoot -24.8549 -26.1664
rtoes -0.126041
lfemur -7.80906 -18.7512 -30.0428
ltibia 27.8961
lfoot -26.9195 14.1272
ltoes -9.73908
336
root 7.61955 15.0562 41.7718 -178.764 -1.26389 -180.799
lowerback 3.42439 1.94759 -1.18786
upperback -0.372971 2.53302 -0.3805
thorax -2.33554 1.274 0.137603
lowerneck -0.0164745 -3.62207 -8.73613
upperneck -4.44482 -4.74815 9.93347
head -0.847044 -2.45117 4.42138
rclavicle -9.99669e-015 8.44835e-016
rhumerus -36.8862 14.226 -94.0055
rradius 33.1434
rwrist 16.1747
rhand -6.53241 -52.8314
rfingers 7.12502
rthumb 19.3205 -81.8916
lclavicle -9.99669e-015 8.44835e-016
lhumerus -38.2137 -14.5933 95.5507
lradius 38.7752
lwrist -11.6535
lhand 0.688998 -37.5185
lfingers 7.12502
lthumb 26.2501 -9.3142
rfemur -10.5045 10.2047 19.0733
rtibia 35.5334
rfoot -25.0247 -26.2418
rtoes -0.233467
lfemur -7.81604 -18.8077 -30.0548
ltibia 27.9439
lfoot -27.0265 13.9624
ltoes -8.65404
337
root 7.61189 15.0542 41.7656 -178.706 -1.33399 -180.837
lowerback 3.34268 1.97218 -1.16682
upperback -0.304493 2.56567 -0.455533
thorax -2.21535 1.2885 0.0519716
lowerneck -0.244663 -3.67249 -8.62622
upperneck -4.39384 -4.80607 9.90425
head -0.792775 -2.47757 4.38816
rclavicle 2.48636e-014 -3.8763e-015
rhumerus -36.8422 13.9048 -93.9469
rradius 33.2299
rwrist 16.3696
rhand -6.43297 -52.8038
rfingers 7.12502
rthumb 19.4161 -81.8545
lclavicle 2.48636e-014 -3.8763e-015
lhumerus -38.0942 -14.6825 95.4028
lradius 38.753
lwrist -11.6559
lhand 0.556224 -38.0552
lfingers 7.12502
lthumb 26.123 -9.83203
rfemur -10.7393 9.96837 18.996
rtibia 35.899
rfoot -24.8542 -26.2026
rtoes -1.41566
lfemur -7.83938 -18.7959 -30.095
ltibia 27.9152
lfoot -27.0959 13.6757
ltoes -7.3304
338
root 7.60003 15.0522 41.766 -178.557 -1.0514 -180.955
lowerback 3.31338 2.13187 -1.18772
upperback -0.326038 2.7749 -0.54789
thorax -2.21974 1.3922 -0.0414413
lowerneck -0.266873 -3.71041 -8.70628
upperneck -4.4272 -4.85427 10.0149
head -0.789164 -2.50298 4.43453
rclavicle 4.25834e-015 -8.44835e-016
rhumerus -36.7893 13.7918 -93.9364
rradius 33.2097
rwrist 16.5534
rhand -6.44057 -52.9085
rfingers 7.12502
rthumb 19.4088 -81.9599
lclavicle 4.25834e-015 -8.44835e-016
lhumerus -38.0195 -14.8448 95.3833
lradius 38.6684
lwrist -11.8129
lhand 0.0314014 -38.2994
lfingers 7.12502
lthumb 25.6204 -10.003
rfemur -11.2215 9.89209 18.7096
rtibia 36.3167
rfoot -24.5977 -25.7901
rtoes -1.09307
lfemur -7.97787 -18.4811 -30.2167
ltibia 27.802
lfoot -27.022 13.7287
ltoes -7.58908
339
root 7.59111 15.0514 41.7533 -178.693 -1.55087 -181.107
lowerback 3.49615 1.99609 -1.27692
upperback -0.339848 2.58403 -0.605593
thorax -2.33602 1.29739 -0.0480034
lowerneck 0.0852211 -3.69211 -8.80925
upperneck -4.6339 -4.84212 10.1392
head -0.902375 -2.5069 4.5007
rclavicle 6.92951e-015 1.39149e-015
rhumerus -36.988 13.8979 -94.0588
rradius 33.3054
rwrist 16.4574
rhand -6.39517 -53.0036
rfingers 7.12502
rthumb 19.4524 -82.0505
lclavicle 6.92951e-015 1.39149e-015
lhumerus -38.1608 -14.9356 95.4166
lradius 38.6817
lwrist -11.6603
lhand -0.0258106 -38.1868
lfingers 7.12502
lthumb 25.5657 -9.88249
rfemur -11.0932 9.58122 18.5904
rtibia 36.7713
rfoot -25.1045 -25.7188
rtoes 1.25761
lfemur -7.69267 -18.4741 -30.443
ltibia 27.6697
lfoot -26.8193 13.4483
ltoes -8.4545
340
root 7.58265 15.0485 41.7429 -178.847 -1.78161 -181.228
lowerback 3.67592 1.95195 -1.34494
upperback -0.293587 2.51572 -0.667905
thorax -2.38884 1.2628 -0.075721
lowerneck 0.322363 -3.72438 -8.64793
upperneck -4.8969 -4.89194 10.0137
head -1.0213 -2.54019 4.44567
rclavicle 2.83423e-014 -1.38155e-014
rhumerus -36.9639 13.8716 -94.1351
rradius 33.3224
rwrist 16.389
rhand -6.2109 -53.0747
rfingers 7.12502
rthumb 19.6296 -82.1036
lclavicle 2.83423e-014 -1.38155e-014
lhumerus -38.2271 -14.9967 95.3995
lradius 38.6838
lwrist -11.3934
lhand 0.174796 -38.1986
lfingers 7.12502
lthumb 25.7578 -9.92198
rfemur -11.0692 9.3818 18.4679
rtibia 37.2597
rfoot -25.417 -25.5586
rtoes 2.05675
lfemur -7.38801 -18.5417 -30.6723
ltibia 27.5388
lfoot -26.673 13.2641
ltoes -7.49019
